#format: frame checksums
#version: 2
#hash: MD5
#tb 0: 1/48000
#media_type 0: audio
#codec_id 0: pcm_s16le
#sample_rate 0: 48000
#channel_layout_name 0: 7.1
#stream#, dts,        pts, duration,     size, hash
0,          0,          0,      240,     3840, a48f0d61d1cebb4d15feef988782fe57
0,        240,        240,      240,     3840, 9e87623cc3bea0182c87e3f2ae50b282
0,        480,        480,      240,     3840, 6183b526c5cb34b88144c51607f597f5
0,        720,        720,      240,     3840, 54e3deb279e53907c6ca5ffe51e87e55
0,        960,        960,      240,     3840, 29a0d6ef6357e3cdc3dd4d2daab17a73
0,       1200,       1200,      240,     3840, ec94421c9539312df7018bf584140f35
0,       1440,       1440,      240,     3840, a91f2ec9971fe83b0fbd6a34bee114a4
0,       1680,       1680,      240,     3840, 5cc09c5514766d0c0911becdb8fbcb49
0,       1920,       1920,      240,     3840, 49aaf494fae516b4fb0036fb97e54cd1
0,       2160,       2160,      240,     3840, d91b8c6a0b028620bab2f61cae33947c
0,       2400,       2400,      240,     3840, 91fb9ead60419a4c584de5d25bcac5b7
0,       2640,       2640,      240,     3840, 00b332b7ed15fe8f1c25076b9a4dc5a8
0,       2880,       2880,      240,     3840, 8561d013c4fbfc3c9e153f73214dd2fd
0,       3120,       3120,      240,     3840, 3e1c18d46c5af8311780c768930cef7a
0,       3360,       3360,      240,     3840, 2a9aec28675bdccbb1d51d134a550f33
0,       3600,       3600,      240,     3840, 26d38d2ce506041ee87291aa8cd89c0b
0,       3840,       3840,      240,     3840, cf34a0b8304f424582cf8ff0a6bafcb3
0,       4080,       4080,      240,     3840, 80d105b072fa83529adf4aa4d093b18b
0,       4320,       4320,      240,     3840, 3d5a6a57f773cc29dbbd586aa1cc30b0
0,       4560,       4560,      240,     3840, ec30d4d34f3b7f4abf04d0344153b61c
0,       4800,       4800,      240,     3840, b5603d847cd1df671937eade6f6c304d
0,       5040,       5040,      240,     3840, 066d4596904445a2b3ce2aab25a5ace2
0,       5280,       5280,      240,     3840, 26e7bc1b1d0c8af76edd98b9dc1c4162
0,       5520,       5520,      240,     3840, aa807ea2a9ddb89687efb4e436d151ed
0,       5760,       5760,      240,     3840, e74e54d65c7682d87713a328f820379a
0,       6000,       6000,      240,     3840, 3c4d9be3ee01f1254a5b70eeac7ec009
0,       6240,       6240,      240,     3840, eba7f4cb280c03ede4cb74aed016eabe
0,       6480,       6480,      240,     3840, 7f82078611ae826f685fc48bf2188583
0,       6720,       6720,      240,     3840, 11e6fa2d25d3ce7ef5620ec748aaea7c
0,       6960,       6960,      240,     3840, b9461f19092f57c9272371d09a7f2ef5
0,       7200,       7200,      240,     3840, 74891ac02ec9cb1bd3ee990d684ddd0b
0,       7440,       7440,      240,     3840, 303e2fb1a6b2aecbdc3c92e152a903a0
0,       7680,       7680,      240,     3840, 93db2ce58a3c72f9276180263ec40686
0,       7920,       7920,      240,     3840, 9f6ed353f42eb705cc325e4377cd5cad
0,       8160,       8160,      240,     3840, 74faac166d93b96d9cc84917e2e9282c
0,       8400,       8400,      240,     3840, 2f45265714620cdb8e4f6f7b29b83c7b
0,       8640,       8640,      240,     3840, 0bcd01fad6998f54c623fd493212af17
0,       8880,       8880,      240,     3840, e5f71ad708d3095118674473f91baae9
0,       9120,       9120,      240,     3840, 9166bfe7f179b9be4d212dd0104cbc89
0,       9360,       9360,      240,     3840, 68b750859e46985b785cd4b579cafbde
0,       9600,       9600,      240,     3840, f6cc3e284572e9c325237cd4f3b50e80
0,       9840,       9840,      240,     3840, a1f362e809bfcd89e6dbedc6888bca52
0,      10080,      10080,      240,     3840, a71c67761cab6d5c49fe7cc52874d191
0,      10320,      10320,      240,     3840, 6813653d1dcc7432b8d4ccc0b1bdac2e
0,      10560,      10560,      240,     3840, 026bee02c9ff6bf287921578d26072c6
0,      10800,      10800,      240,     3840, f566bc3a5a08a39de200bb31fb92a194
0,      11040,      11040,      240,     3840, ae82f42097bb605c5f1d65564cb77d72
0,      11280,      11280,      240,     3840, 50d55c389eb6d3c58601e62224dfedb3
0,      11520,      11520,      240,     3840, 272ebb838fb7b5028ce6ede89f8f2466
0,      11760,      11760,      240,     3840, 3ef6d62cd9570eed441c0ed4b2c31336
0,      12000,      12000,      240,     3840, 5590b2e1537346f34a599bd94811347e
0,      12240,      12240,      240,     3840, 59c0a93638165ea8e1e917106ff7b5f3
0,      12480,      12480,      240,     3840, f2eb73639797f858017b5e48b95a3cb2
0,      12720,      12720,      240,     3840, 0c53c5a9f611ce7424858cf72abfdb8e
0,      12960,      12960,      240,     3840, 8ccee5428d82cbc3693e9e4faa98003f
0,      13200,      13200,      240,     3840, 9dc460c36e0bad4b61040bb72b72763f
0,      13440,      13440,      240,     3840, f0ee2752a643aebf47661dfa6c947739
0,      13680,      13680,      240,     3840, 9e134049b936052eaef886df2b0cae2e
0,      13920,      13920,      240,     3840, 0a9a65c938d29898cc50988d6a44cf05
0,      14160,      14160,      240,     3840, 0c7357f3c80f3c6984fe8d19d5229b28
0,      14400,      14400,      240,     3840, 6fdea1f8d8e11b91ed4a0362dcdb6ca2
0,      14640,      14640,      240,     3840, 524439c4ec3735eaca4d05567ae96370
0,      14880,      14880,      240,     3840, ae78e62c413b6b9fa33923c795bf23e8
0,      15120,      15120,      240,     3840, 0cf6086fc3aa17e76bb878313571f16c
0,      15360,      15360,      240,     3840, 3adaee45a605218e91c1614ad99c71aa
0,      15600,      15600,      240,     3840, 989d47c1e1f36e3455405ad3d7c0ca5e
0,      15840,      15840,      240,     3840, 71caeca31fbc2a9befb1ab45cfd8e292
0,      16080,      16080,      240,     3840, af6a8192de4f1b2eea6e5effdb367ae8
0,      16320,      16320,      240,     3840, 1e682985bd5cfe3f8d6114f90a4f4e35
0,      16560,      16560,      240,     3840, 0e83b9df27404ea36ebc6558541aad3e
0,      16800,      16800,      240,     3840, 28196af6afb3bfa88de4b952bd12e7cf
0,      17040,      17040,      240,     3840, 689777f12d091901af47d3657cb15651
0,      17280,      17280,      240,     3840, d0f0af9080d7448188eadaabc556b10e
0,      17520,      17520,      240,     3840, 267da1ba2c1f9e501085168201e3241b
0,      17760,      17760,      240,     3840, 625051fd0c5dd4e0e9f70a40651788b1
0,      18000,      18000,      240,     3840, 3b5d6667a510262ac3acccb5c351775a
0,      18240,      18240,      240,     3840, df1ec948e37a1871f55d9f5ebc9d6a66
0,      18480,      18480,      240,     3840, 6de60ad3760c4be217cdd323ead5e0e3
0,      18720,      18720,      240,     3840, 196ebe5c9721c262031169c753978378
0,      18960,      18960,      240,     3840, bc77906decf9e6e63fd791d4ee833874
0,      19200,      19200,      240,     3840, 46a533ca7f383976d4c3254a4b7709b0
0,      19440,      19440,      240,     3840, d09552dad9404e5cbb0f0cac82d7d5d5
0,      19680,      19680,      240,     3840, 13011a6ac9949991076f1d1a175f1853
0,      19920,      19920,      240,     3840, 9b51f7912eb5a46749d775a356342a70
0,      20160,      20160,      240,     3840, 0818c619582a199c37aecfe52e88a1a9
0,      20400,      20400,      240,     3840, 48caf63bcbde783650d0cf5ed3b57aee
0,      20640,      20640,      240,     3840, 8fa5b214bb0ed148fd3786e7c68d95fe
0,      20880,      20880,      240,     3840, 749635e3609b1bb843f2e5f0d494ad74
0,      21120,      21120,      240,     3840, e93249ce156f393da166313ef8327297
0,      21360,      21360,      240,     3840, 6763951aa111f25d814a41d1d5d9e691
0,      21600,      21600,      240,     3840, cb461c4392a4a066c30bbf075803f39a
0,      21840,      21840,      240,     3840, 80239ed9212e28b11b4552b46766cba1
0,      22080,      22080,      240,     3840, e9f0398ba73c25deca7bbd8b8be13237
0,      22320,      22320,      240,     3840, db1f074125445d1cb46144c332ba9ecc
0,      22560,      22560,      240,     3840, 76566553614a734ec3f8eaddd2d11754
0,      22800,      22800,      240,     3840, 2215edcb922feabd3f56fc012e137459
0,      23040,      23040,      240,     3840, 66441d718919a43cdfa3bacec63d5b9f
0,      23280,      23280,      240,     3840, 097fdbd08a76def5258b0a090d0054e9
0,      23520,      23520,      240,     3840, 218f53f5d6f519610fecfa7e35178cc6
0,      23760,      23760,      240,     3840, dbf08b434f9c49d3b7a7fd1941443a4b
